<svg xmlns="http://www.w3.org/2000/svg" viewBox="0 0 22.73 20.12"><defs><style>.cls-1{fill:#fff;}</style></defs><title>basket</title><g id="Layer_2" data-name="Layer 2"><g id="Layer_1-2" data-name="Layer 1"><path class="cls-1" d="M12.66,18.4a1.72,1.72,0,1,1-1.72-1.71,1.72,1.72,0,0,1,1.72,1.71Zm0,0"/><path class="cls-1" d="M19.54,18.4a1.72,1.72,0,1,1-1.72-1.71,1.72,1.72,0,0,1,1.72,1.71Zm0,0"/><path class="cls-1" d="M22.34,3.72a1.77,1.77,0,0,0-1.11-.37H6.12l-.5-2.08A1.66,1.66,0,0,0,4,0H0L.77,1.66H3.22a1.17,1.17,0,0,1,1.14.93L6.59,13.3a2.71,2.71,0,0,0,2.65,2.16H19c1.36,0,1.44-1.5,1.44-1.5H9.68c-.56,0-1.21.08-1.62-1.53C7.9,11.84,7.54,10,7.54,10H21.08a1.22,1.22,0,0,0,1.17-1.08l.46-4.21a1,1,0,0,0-.37-1Zm-1.6,4.61H7.18L6.52,5.27H21.08Zm0,0"/></g></g></svg>