<svg xmlns="http://www.w3.org/2000/svg" xmlns:xlink="http://www.w3.org/1999/xlink" viewBox="0 0 32.04 30.55"><defs><style>.cls-1{fill:none;}.cls-2{clip-path:url(#clip-path);}</style><clipPath id="clip-path"><rect class="cls-1" width="32.88" height="31"/></clipPath></defs><title>earth</title><g id="Layer_2" data-name="Layer 2"><g id="Layer_1-2" data-name="Layer 1"><g class="cls-2"><path d="M27,3.92c-.41-.33-.83-.64-1.27-.93A15.1,15.1,0,0,0,19.11.27L19,.25c-.26,0-.53-.08-.8-.11A16.3,16.3,0,0,0,16.13,0a15.91,15.91,0,0,0-11,4.38A15.15,15.15,0,0,0,.39,15.44a14.57,14.57,0,0,0,1.29,5.89,13.9,13.9,0,0,0,1.77,2.86l0,0A13.92,13.92,0,0,1,.13,16.18a4.81,4.81,0,0,0,0,2.52A9.59,9.59,0,0,0,1.88,22.6c.22.51-.3-.26-.19.06A10.61,10.61,0,0,0,2.61,24l.55.65.58.59a14.4,14.4,0,0,0,2.41,1.85c-.27,0,.74,1,2.08,1.52.17,0-.48-.41-.26-.37a15.55,15.55,0,0,0,2.49,1.2l.28.12h.06l.46.17a15.23,15.23,0,0,0,4,.7,14.12,14.12,0,0,0,4.28-.16A15.22,15.22,0,0,0,27.07,4.08,1,1,0,0,0,27,3.92ZM7.77,27.79a15.21,15.21,0,0,1-3.62-3.26,20.51,20.51,0,0,1-1.41-2.13,9.74,9.74,0,0,1-1.43-4.57,6.55,6.55,0,0,1,.4,1.39c.2.71.48,1.39.55,1.3-.17-.89-.53-2.4-.67-3.87s-.13-2.89-.23-3.55A13.86,13.86,0,0,1,3.51,7.88a15.21,15.21,0,0,0,7.22,21.39,14.77,14.77,0,0,1-3-1.49ZM30.95,13.15q.11.77.14,1.55a1.42,1.42,0,0,0-.15-.49c-.09-.16-.39-.41-.38-.64s.32-.3.39-.41Zm-3.48,1.67c.09.19.36.52.44.36a.82.82,0,0,0,.06-.33,2.59,2.59,0,0,1,.25-1.09l.09-.16c.05-.09.14-.57.42-.5a.83.83,0,0,1,.38.35c.14.2.25.35.35.46s.43.45.43.54a1.18,1.18,0,0,0,.09.36c0,.12.13.22.19.23a.12.12,0,0,0,.11-.13c0-.08.08-.09.18,0a1.13,1.13,0,0,1,.28.27.18.18,0,0,0,.24.07.48.48,0,0,0,.13-.31,14.79,14.79,0,0,1-4.5,11A14.52,14.52,0,0,1,5.14,6.52C5.77,5.7,6.35,5.2,6.33,5.31a2.43,2.43,0,0,0,0,.4,2.11,2.11,0,0,1-.51.7l-.49.53c-.23.25-.39.45-.52.62a1.61,1.61,0,0,0-.29,1A.76.76,0,0,0,4.66,9a.89.89,0,0,1,.23.34L5,9.52l.12.39a3.18,3.18,0,0,1,.12.79,2,2,0,0,0,.08.59,1.11,1.11,0,0,0,.53.44,2.58,2.58,0,0,0,.5.16c.63.14.53,0,.5.14s.07.39.51.5a.58.58,0,0,1,.28.15c.13.13.26.46.45.66s.26.28.33.37.39-.45.34-.42-.61-.09-.61-.25.48-.94,0-.91-.64.12-.51-.35c.05-.2,0-.29-.12-.32s-.64.25-.84.06,0-.34,0-.47a1.82,1.82,0,0,1,.19-1c.26-.48,1-.57,1.31-.59a3.81,3.81,0,0,0,.53-.05A.27.27,0,0,1,9,9.59c.09.2,0,.58.15.68s.18-.23.18-.23l.09-.43,0-.26c0-.14.38-.37.71-.65a6.38,6.38,0,0,1,1.91-1.58,3.61,3.61,0,0,1,1.72-.18l.29,0c.16,0-.08.36.19.41a1.28,1.28,0,0,0,.47-.09l.13-.07L15.33,7l.3-.11c.29-.11.18-.37,0-.57a.54.54,0,0,1-.09-.13,1.79,1.79,0,0,1,0-.38l0-.23a.15.15,0,0,0-.1-.11c-.09,0-.18,0-.21-.08a.5.5,0,0,1-.05-.21c0-.07-.15-.13-.33-.17l-.32-.09c-.23-.07-.1-.28.09-.48a1.34,1.34,0,0,1,.64-.4h.27a.18.18,0,0,0,.17-.11.66.66,0,0,0,0-.14c0-.24-.05,0,.26-.34A.4.4,0,0,0,16,3.24c0-.15-.2-.26-.28-.32s-.27-.16-.39-.26a.92.92,0,0,1-.21-.21A.81.81,0,0,0,15,2.27a1,1,0,0,0-.46-.2.36.36,0,0,0-.23.09.28.28,0,0,0-.12.15c0,.11,0,.2-.09.27l-.2.14a2.85,2.85,0,0,1-.24.17c-.14.08-.26.63-.54.51-.08,0-.19-.16-.33-.43a1.3,1.3,0,0,0-.36-.49c-.27-.2-.57.22-.61.39l-.07.31c-.05.32-.22.48-.35.21a.49.49,0,0,0-.09-.14c-.08-.07-.26,0-.39,0a1.72,1.72,0,0,1-.58-.1c-.2-.07-.65.17-1.08.45a8.42,8.42,0,0,1-.81.46,3.2,3.2,0,0,1-.76.3c-.08,0-.11,0-.11.08s-.06.1-.2.07.38-.64,1.23-1.22a15.35,15.35,0,0,1,1.48-.87,17.86,17.86,0,0,1,3-1,2.88,2.88,0,0,0,.82-.31A14.51,14.51,0,0,1,16.39.8a18.43,18.43,0,0,1,2.85.34,18.79,18.79,0,0,1,4.43,1.5l.68.35c.25.15.49.31.73.48.85.6,1.27,1.18,1,1.18a4.58,4.58,0,0,1-.88-.11,1.71,1.71,0,0,0-.75,0,.58.58,0,0,1-.45,0,1.13,1.13,0,0,0-.49-.1H23c-.14,0-.5-.43-1-.5s-.9.66-1.2.8a2.22,2.22,0,0,1-.72.21,2,2,0,0,1-.4-.05l-.23-.06L19,4.75a1.29,1.29,0,0,0-.7.06,1.86,1.86,0,0,0-.63.8c-.16.37-.3.86-.38,1.07l-.14.39L17,7.48c-.09.24-.2.6-.25.81l-.09.38s-.14.62.24.31a7.49,7.49,0,0,1,.81-.73,1.15,1.15,0,0,1,.95,0,.94.94,0,0,1,.36.41,2,2,0,0,0,.17.3c.11.16.23.13.21,0a.6.6,0,0,1,0-.32c0-.07.09-.12.14-.11a.14.14,0,0,1,.1.13.73.73,0,0,0,0,.22.52.52,0,0,0,.23.25c.12,0,.57-.19.81,0s-.08.75-.28,1-.42.35-.47.3a.92.92,0,0,0-.26-.14l-.28-.11a.48.48,0,0,1-.14-.35c0-.16-.1-.3-.19-.32a2.18,2.18,0,0,0-.52,0c-.2,0-1.21.17-1.44,1a4.77,4.77,0,0,0,.47,2.63c.25.62.48,1.27.53,1.46l.08.35.16.48a.6.6,0,0,0,.44.4c.34.07.75,0,.93.12a.82.82,0,0,1,.36.55c0,.1,0,.21,0,.32a.81.81,0,0,0,.09.38,3.43,3.43,0,0,1,.24,1c0,.38-.08,1.09,0,1.58s.24,1.17.29,1.55.35,1.13.79,1c.17,0,.37-.18.57-.52s.34-.59.44-.82A12.75,12.75,0,0,1,23,19.81a1.7,1.7,0,0,0,.43-.91,4,4,0,0,1,.15-1.37c.2-.38.55-.6.66-.56a.94.94,0,0,1,.18.09.25.25,0,0,0,.3,0c.13-.13-.11-.43-.09-.69s.41-.77.2-1.14-.31-.72-.06-.91a2.12,2.12,0,0,0,.51-.53c0-.09.21-.35.06-.5s-.72-.5-1.17-.89-.79-.72-.79-.72l-.23-.24c-.13-.13-.61-.45-.41-.56s.48.09.57.14a.61.61,0,0,0,.32.07.93.93,0,0,1,.61,0,1.05,1.05,0,0,1,.38.32l.5.61a9.8,9.8,0,0,0,.85.86,2.4,2.4,0,0,0,.56.36.74.74,0,0,1,.35.38l.12.29.27.62a3.36,3.36,0,0,1,.18.34Zm0,0"/></g><path d="M15,15.87a3.49,3.49,0,0,0-.69-.36c-.15,0-.45-.16-.67-.26a1.08,1.08,0,0,1-.5-.41l-.1-.23,0-.12a1.67,1.67,0,0,0-.09-.22c0-.06-.08-.11-.11-.11s-.09-.05-.13-.11a.58.58,0,0,0-.4-.11c-.18,0-.32,0-.32-.09a.57.57,0,0,0-.14-.26,3.82,3.82,0,0,0-.33-.34.77.77,0,0,0-.46-.18c-.14,0-.44.11-.64,0a.68.68,0,0,1-.3-.25c-.15-.2-.32-.14-.47,0s-.41.46-.51.51-.07.35-.12.69a1.78,1.78,0,0,1-.18.59c-.6,1.13-.41,1.45-.41,1.45l.1.2a5.67,5.67,0,0,0,.32.51,5.52,5.52,0,0,1,.39.84,1.73,1.73,0,0,0,.62.63,3.13,3.13,0,0,1,.57.61,1.53,1.53,0,0,1,.25.44,9.92,9.92,0,0,0,.46,3,7.45,7.45,0,0,0,1.24,2.27,2.2,2.2,0,0,0,.8.61.55.55,0,0,0,.42-.05c.06-.06,0-.18-.15-.26a1.35,1.35,0,0,1-.37-.3.76.76,0,0,1-.12-.37,1.14,1.14,0,0,0-.14-.45,1.28,1.28,0,0,1-.14-.46,2.05,2.05,0,0,1,0-.51.57.57,0,0,1,.33-.35c.14-.05.26-.16.26-.24a.76.76,0,0,1,.07-.29,1.23,1.23,0,0,1,.17-.24.35.35,0,0,0,.11-.21v-.23a.37.37,0,0,1,.09-.22.53.53,0,0,0,.11-.29v-.18s0-.09,0-.21a.84.84,0,0,1,.18-.41.54.54,0,0,1,.32-.2.5.5,0,0,0,.29-.13.9.9,0,0,0,.2-.27,2.05,2.05,0,0,0,.08-.4,6.71,6.71,0,0,0,0-.68,1.17,1.17,0,0,1,.11-.59c.07-.09.18-.27.25-.39a1.48,1.48,0,0,0,.16-.4,1.49,1.49,0,0,0,0-.42,1.09,1.09,0,0,0-.46-.51Zm0,0"/><path d="M26.52,20.61l-.08.07-.3.29-.27.31a3.71,3.71,0,0,0-.63.78,1,1,0,0,0-.09.59c0,.24.11.46.13.63,0,.36-.5.52-.68.67a1.6,1.6,0,0,0-.29.31s-.2.36,0,.46.8-.32,1.2-.61.82.58,1.22.58c.15,0,.33-.1.59-.37l.73-.75c.4-.41.86-.95.8-1.2s-.43-.62-.4-.94.25-.72.16-.94-.59-.33-.95-.32a1.88,1.88,0,0,0-.79.31,1.52,1.52,0,0,0-.32.13Zm0,0"/></g></g></svg>