<svg xmlns="http://www.w3.org/2000/svg" viewBox="0 0 493.52 498.96"><title>free</title><g id="Layer_2" data-name="Layer 2"><g id="Capa_1" data-name="Capa 1"><path d="M446.67,211c3.11-4.36,6.78-10.18,11.32-17.89,7.18-12.2,15.19-27.21,16.8-31.47a10.39,10.39,0,0,0-6.28-13.48c-2.08-.73-4.31-1.54-6.66-2.4-12.87-4.69-28.48-10.4-43.21-11.81,5.74-18.12,6.58-40.12,5.31-53.56A10.39,10.39,0,0,0,412.24,71c-15.66,2.05-35.18,5-53.93,9.86-.52-3.19-1-6.45-1.48-9.79-2.16-14.69-4.4-29.88-10.08-44.13a10.38,10.38,0,0,0-11.24-6.43c-17.29,2.66-31.57,14.58-44.18,25.08-2,1.69-4,3.34-5.94,4.91-7.24-11.62-15-23-22.54-34.06q-4.07-6-8.07-11.89a10.4,10.4,0,0,0-17.25,0c-3.74,5.56-7.24,11.46-10.61,17.17-5.61,9.47-10.91,18.42-17.25,26-1.62,1.92-2.67,3.06-3.34,3.74-1.89-.83-5-2.6-6.48-3.45C186.89,40.63,173.32,30,161,20.41h0a10.23,10.23,0,0,0-14.43,1.92,10.57,10.57,0,0,0,1.64,14.47h0a9.57,9.57,0,0,1-3.81-7.37c-.11,2.43-2,11.23-5.64,26.17-.59,2.43-1,4.12-1.08,4.58-.59,3.08-1,6-1.4,8.8-1.61,11.37-1.61,11.37-6.54,11.37-.92,0-1.89-.05-3-.15-10-.89-20.69-3.54-31.07-6.11-5.6-1.38-11.15-2.75-16.61-3.89A10.39,10.39,0,0,0,66.82,82.49c.27,1.35.82,5.05,1.57,10,3,20,5.27,33.5,7.31,42.7-18.78,2.22-43.31,10.33-51.55,13.46a10.45,10.45,0,0,0-3.94,16.79c4,4.41,23.54,32,30.22,43.58A195.19,195.19,0,0,1,5.58,241.2a10.39,10.39,0,0,0-1.9,17.14c5.24,4.44,12.68,7.92,20.54,11.6,9.83,4.59,23.07,10.77,25.58,17.29C46.62,296,28,325,21.43,331.36a10.4,10.4,0,0,0,1.15,19.74c5,1.32,12.42,2,21,2.82,9.69.9,29.1,2.73,35,6,.33,10.4-5.81,43.41-9.12,51.31a10.41,10.41,0,0,0,9.19,17.51c6.27-1.06,13.18-3.52,20.49-6.14,9.45-3.37,20.17-7.19,28.28-7.19a14.73,14.73,0,0,1,6.78,1.35c5.41,2.77,7.75,29.36,8.53,38.1a163.13,163.13,0,0,0,2,16.93,10.4,10.4,0,0,0,10.19,8.31c3.68,0,3.68,0,23.48-15.54,4.59-3.6,8.48-6.66,9-7.08,6.38-4.78,15.23-11.66,21.09-8.83,5.49,5.17,24.31,31.2,27.36,39.21A10.4,10.4,0,0,0,255.14,494h0a163.13,163.13,0,0,0,7.66-15c6.42-13.59,15.17-32.1,26.07-32.8,7.06,2.09,32.69,16.73,38.7,23.23a10.41,10.41,0,0,0,20,1.92.05.05,0,0,1,0,0c.41-1.06,1.63-4.36,7.59-34.49,1.61-8.12,2.81-14.21,3.69-18.87,2.34.61,4.74,1.27,7.2,1.94,13.77,3.76,29.36,8,43.23,8a60.15,60.15,0,0,0,6.27-.32,10.39,10.39,0,0,0,9.32-11c-.2-3-1.95-11.8-7.1-36.61-1.31-6.32-2.8-13.51-3.9-19,3.53-1,7-2.06,10.45-3.09,14.15-4.27,27.52-8.29,41.24-8.69a10.4,10.4,0,0,0,9.16-14.72c-7-15.35-18.19-30.87-28.93-45.07,4.27-2.71,9.86-6.45,17.26-11.65,25.82-18.16,28.16-22.21,29.15-23.95a10.4,10.4,0,0,0-1.81-12.67C477.68,229,462,219.82,446.67,211Zm-18.51,64.78a10.4,10.4,0,0,0-6.45,16.54h0l2.19,2.88c8.42,11,17.66,23.15,24.84,35-10.51,1.84-20.61,4.89-30.49,7.86-6.48,2-12.59,3.79-18.9,5.34-9.79,2.49-8.08,11-6.1,20.93,1.07,5.33,2.55,12.5,4.1,19.93,1.41,6.81,3.23,15.54,4.62,22.46-9.48-1.09-20.12-4-30.49-6.83-6.69-1.82-13-3.53-19-4.77l-2.19,10.57L340,404.46c-.38,3.16-4.67,25.63-8.06,42.15-14.55-10.33-35.49-21.09-42.61-21.18-22,0-34.06,21.29-42.79,39.33-9.25-14.48-22.23-31.06-27.13-33.87a27.39,27.39,0,0,0-13.83-3.72c-12.38,0-22.92,7.89-30.61,13.63-.43.32-4.53,3.54-9.42,7.37l-2.41,1.89c-1.89-21.15-4.55-44.17-19.49-51.83a35.38,35.38,0,0,0-16.26-3.63c-11.34,0-23.44,4.19-34.23,8,4.33-18.43,9.19-46.46,3.11-54.49-7.62-10.07-25.57-12.55-50.12-14.86,9.94-13.9,26-38.44,24.52-48C67.86,267.37,48.55,258.35,33,251.1l-1.7-.79a204.51,204.51,0,0,0,38.75-31.57c6.86-7.29,2.27-15.49-13.75-38.93-3.48-5.09-7.67-11-11.42-16.19,13-4,29.71-8.17,39.48-8.17a15.36,15.36,0,0,1,3.54.3h0A10.4,10.4,0,0,0,98.11,138.6C95.59,131.89,91.66,107,89.67,94l1.06.26c11.14,2.75,22.66,5.6,34.19,6.63,1.73.16,3.34.23,4.83.23,23,0,25.49-17.61,27.14-29.25.34-2.46.72-5.07,1.22-7.72.11-.49.43-1.82.88-3.66,1.21-5,2.25-9.27,3.12-13a262.28,262.28,0,0,0,27.43,18.54c7,4,12,6.57,17.57,6.57,8.77,0,14.15-6.4,18.47-11.54,7.45-8.85,13.44-19,19.23-28.75l1.72-2.9c9.23,13.54,18.72,27.51,27,41.54a10.39,10.39,0,0,0,14.78,3.36c5.57-3.76,11.07-8.34,16.39-12.78,8.41-7,17-14.21,25.79-18,2.72,9.57,4.23,19.84,5.82,30.56,1.07,7.25,2.17,14.75,3.69,22a10.38,10.38,0,0,0,13.29,7.79c16.36-5.14,35.11-8.5,50.46-10.75-.06,16.88-3.42,36.26-10.22,46.12a10.4,10.4,0,0,0,11.33,15.93,27.31,27.31,0,0,1,7.21-.85c11.59,0,26.11,4.88,38.58,9.38-6.85,12.85-18.95,33.65-24.17,39.44a10.4,10.4,0,0,0-2.1,18.82c3.44,2,7,4.1,10.57,6.18,11.18,6.46,22.65,13.09,32.43,20.66C455.74,257.83,434.61,272.49,428.16,275.76Z"/><path d="M181.13,239.52H160.34c.06-8.19.09-16.37.3-24.56,6.51-.6,13.09-.57,19.63-.57,11.74,0,11.74-18.21,0-18.2-10.43,0-20.71.32-31,2.06-4.39.74-7,5.6-6.58,9.77,0,.25-.09.48-.1.73q-1.19,39.87,0,79.73c.35,11.71,18.55,11.74,18.2,0-.31-10.26-.42-20.51-.48-30.77h20.85C192.87,257.72,192.87,239.52,181.13,239.52Z"/><path d="M243.79,273.7a91.29,91.29,0,0,1-15.05-10c9.9-9.46,16.76-22.36,14.22-36.46-3.1-17.23-17-27.51-32.55-33.35-5.62-2.12-9.58,1.45-10.68,6a8.71,8.71,0,0,0-1.71,5.39c0,29.19.11,58.37,1.74,87.53.65,11.67,18.85,11.73,18.2,0-.28-5-.44-10-.63-15A103.31,103.31,0,0,0,234.6,289.4C245,294.77,254.23,279.07,243.79,273.7Zm-27.27-23.43c-.18-11-.25-22-.27-33.06A23.47,23.47,0,0,1,225,229.69C227.18,237.58,222.15,244.81,216.52,250.27Z"/><path d="M285.13,205.72c11.57-1.12,11.68-19.33,0-18.2-7.83.76-15.48,1.53-23.22,2.92-3.94.71-6.68,5-6.68,8.78v90.13a8.72,8.72,0,0,0,1.49,5,8.33,8.33,0,0,0,8.48,6.65h18.2c11.73,0,11.73-18.2,0-18.2h-10v-28.6h9.1a9.1,9.1,0,0,0,0-18.2h-9.1V207C277.32,206.5,281.22,206,285.13,205.72Z"/><path d="M331.93,205.72c11.57-1.12,11.68-19.33,0-18.2-7.83.76-15.48,1.53-23.22,2.92-3.94.71-6.68,5-6.68,8.78v90.13a8.71,8.71,0,0,0,1.49,5,8.33,8.33,0,0,0,8.48,6.65h18.2c11.73,0,11.73-18.2,0-18.2h-10v-28.6h9.1a9.1,9.1,0,0,0,0-18.2h-9.1V207C324.12,206.5,328,206,331.93,205.72Z"/></g></g></svg>