<svg xmlns="http://www.w3.org/2000/svg" viewBox="0 0 246.93 373.27"><defs><style>.cls-1{fill:#fff;}</style></defs><title>mark</title><g id="Layer_2" data-name="Layer 2"><g id="Layer_1-2" data-name="Layer 1"><path class="cls-1" d="M123.47,0A123.61,123.61,0,0,0,0,123.46c0,27.42,17.51,72.12,53.53,136.67,25.48,45.65,50.54,83.71,51.59,85.31l18.36,27.82,18.35-27.82c1.06-1.6,26.11-39.66,51.59-85.31,36-64.54,53.53-109.25,53.53-136.66A123.61,123.61,0,0,0,123.47,0Zm0,186.63a64,64,0,1,1,64-64,64,64,0,0,1-64,64Zm0,0"/></g></g></svg>