<svg xmlns="http://www.w3.org/2000/svg" xmlns:xlink="http://www.w3.org/1999/xlink" viewBox="0 0 151.34 150.06"><defs><style>.cls-1{fill:none;}.cls-2{clip-path:url(#clip-path);}</style><clipPath id="clip-path" transform="translate(0)"><rect class="cls-1" width="151.92" height="151"/></clipPath></defs><title>mark_on_map</title><g id="Layer_2" data-name="Layer 2"><g id="Layer_1-2" data-name="Layer 1"><g class="cls-2"><path d="M150.89,97.76c-.44-18.19-.09-36.37-1-54.55a.93.93,0,0,0,.4-1c-1.12-5.73-8.91-10.33-13.21-13.55-7.17-5.38-14.79-10.18-22.23-15.18a1.92,1.92,0,0,0,.17-.67,1.05,1.05,0,0,0-1.95-.53c-.26.49-.59.94-.89,1.41l-.13.11a21.44,21.44,0,0,0-2,2.23,17.3,17.3,0,0,0-1.66,2.62c-.46.51-.93,1-1.42,1.49C103.5,8.18,93.57-.24,79.54,0A26.12,26.12,0,0,0,62.62,6.88a.27.27,0,0,0-.23.21A37.68,37.68,0,0,0,50.44,31.74C50,38.64,51.74,45.51,54.83,52c-2.71,2.83-5.36,5.7-8,8.57S32.36,52.5,30.29,50.91c-9.37-7.17-18.66-14.3-28.87-20.24,0-.05,0-.11,0-.16-.06-.47-.76-.5-.76,0,0,.07,0,.15,0,.22a.52.52,0,0,0,0,.68c.08,30.84-1.47,61.85,0,92.65.06,1.22,2,1.23,1.9,0h0c1,1.71,6,5.54,6,5.53,4,3.07,8,6.09,12.14,9C27.19,143.24,34.88,148.72,43,150a.88.88,0,0,0,1-.45.57.57,0,0,0,.42.19.92.92,0,0,0,1.59-.63V149c10-5.93,19.5-12.75,29.2-19.23,11.68-7.79,24.72-13.11,36.57-20.6,11.7,11.33,24.58,21.24,33.8,34.86a1.12,1.12,0,0,0,2-1c.3-.41.61-.83.91-1.27a1,1,0,0,0,.9-.82c.11-.49.17-1,.26-1.47,0-.08.07-.16.09-.23s0-.12,0-.18c2.54-13.57,1.59-27.52,1.25-41.27ZM43.94,148.66a1,1,0,0,0-.47-.4C28,142.52,16.86,131.49,2.78,123.74h0c.32-.09.18-.54-.13-.49a.38.38,0,0,0-.14.07c-1.19-30.32,2.4-61-1-91.22,15,9.8,28.36,21.68,42.86,32.11-.6,28.15-.47,56.3-.46,84.45ZM92.56,5a20.88,20.88,0,0,1,11.18,10.51c-1.76-1.62-3.85-3-5.72-4.44-3-2.3-5.94-4.7-8.85-7.13-.42-.35-1,.23-.61.61C91.1,6.9,93.83,9,96.5,11.17s5.18,4.79,8.08,6.65h.05c.14.44.3.87.41,1.33-.54-.36-1.08-.7-1.54-1-2.53-1.79-5.09-3.54-7.62-5.32s-5-3.62-7.4-5.62c-1-.82-3.75-2.86-4-4.4A28.64,28.64,0,0,1,92.56,5ZM84.14,2.75c-.77,3.37,5.55,7.16,7.68,8.81,2.64,2,5.36,4,8.09,5.92,1.66,1.17,3.64,3.12,5.62,4a29.77,29.77,0,0,1,.39,5.15C97.21,17.84,88.08,8.27,76.76,3.06a24.64,24.64,0,0,1,7.39-.31Zm6.19,24.74c.27.16.52.37.78.54a16.71,16.71,0,0,1-1,2.47c-.11-.12-.23-.21-.34-.33-.42-.45-1.06.21-.66.66.17.19.37.35.54.54a12.52,12.52,0,0,1-7.17,5.73C66.31,41.84,64.57,16.34,76.33,12a.26.26,0,0,0,.18-.08,11.33,11.33,0,0,1,6-.31.45.45,0,0,0,.52-.25,10.46,10.46,0,0,1,4.39,1.48c3,1.89,4.23,5.68,4.5,9A15.69,15.69,0,0,1,91.39,27c-.19-.12-.38-.25-.58-.37a.48.48,0,0,0-.48.82ZM81,39.72l.38,0a2.67,2.67,0,0,0,0,.55c0,.1.17.07.16,0C81.48,38.61,84,41.65,84.28,42c.95,1.11,1.83,2.26,2.75,3.39,2.57,3.11,7.32,5.09,10.68,7.28a.46.46,0,0,0,.35.06c-.8,1.48-1.62,2.91-2.46,4.25C89.43,51,83,45.32,76.72,39.46a17.32,17.32,0,0,0,4.27.26Zm8.64,6.34c-2-1.25-3.45-3.53-5-5.28a11.33,11.33,0,0,0-1.51-1.38,12,12,0,0,0,2.43-.87c4,4.13,8.91,9.09,14.25,10.91q-.63,1.29-1.29,2.54c0-.06,0-.13-.08-.18-2.6-2.33-5.8-3.91-8.76-5.74Zm3-2.48a75.92,75.92,0,0,1-6.41-5.48,13,13,0,0,0,2.19-1.62c2.48,1.74,4.9,3.59,7.32,5.41a38.65,38.65,0,0,0,5.6,3.93c-.36.85-.7,1.72-1.09,2.55-2.47-1.67-5.18-3-7.6-4.8Zm-3.56-7.75A16.29,16.29,0,0,0,91.3,33a51.77,51.77,0,0,0,4,3.39c1.23.93,2.48,1.82,3.72,2.72a20,20,0,0,1,3.77,2.94c-.33.91-.65,1.82-1,2.71-4.19-3-8.34-6.15-12.69-8.95Zm9.09,1.11a63.36,63.36,0,0,1-6.43-4.84A21.46,21.46,0,0,0,93,29.37c2.3,1.81,4.44,3.89,6.63,5.78.58.5,3.11,3.11,4.5,2.9-.22.77-.45,1.54-.7,2.3a.57.57,0,0,0-.23-.08,49,49,0,0,0-5-3.34Zm5.69,0c.29-.27-1.3-1.23-1.77-1.57-1.34-1-2.62-2.09-3.91-3.16-1.59-1.31-3.18-2.68-4.87-3.9a21.81,21.81,0,0,0,.73-3.15c1.19,1,2.5,1.88,3.64,2.79,2.43,1.94,4.79,4,7.22,5.89.06,0,.12,0,.18.05-.2,1-.4,2-.66,2.95a.49.49,0,0,0-.56.09ZM99,27.52c-1.56-1.15-3.16-2.55-4.85-3.66,0-.39.11-.78.12-1.17a14.61,14.61,0,0,0-1.2-5.88c4.19,4,8.31,8.06,12.77,11.84-.09,1.25-.27,2.52-.49,3.79-2-1.75-4.22-3.33-6.36-4.92ZM75.87,3.26a66.08,66.08,0,0,1,7.82,5.28A9.65,9.65,0,0,0,78.82,9c-1.73-1.82-4-3.21-5.91-4.84a24,24,0,0,1,3-.88ZM72,4.48C73.87,6.25,75.9,8,77.94,9.55a1.52,1.52,0,0,0-.1.19,8.74,8.74,0,0,0-2.57.56c-1.8-1.61-3.67-3.12-5.39-4.83.7-.37,1.41-.69,2.13-1ZM69.27,5.81a34.64,34.64,0,0,0,5.14,4.87,10.67,10.67,0,0,0-1.78,1.08c-1.06-.73-2.16-1.39-3.15-2.23S67.76,8,66.91,7.29a27.48,27.48,0,0,1,2.36-1.48Zm-2.9,1.9c1,.93,2,1.88,2.95,2.8a17.2,17.2,0,0,0,2.44,2,12.07,12.07,0,0,0-1.12,1.13C69.39,12.71,68,12,66.77,11A26.73,26.73,0,0,1,64.68,9c.54-.47,1.12-.87,1.69-1.3Zm-5,4.64a14.36,14.36,0,0,0,5.69,4.26.38.38,0,0,0,.37-.64,24.63,24.63,0,0,0-3.28-2.26,17.29,17.29,0,0,1-2.26-2,30.46,30.46,0,0,1,2.29-2.31c.63.72,1.29,1.43,2,2.1a16,16,0,0,0,3.75,2.95,18.33,18.33,0,0,0-2.71,5.84c-1.35-1.1-2.9-2-4.27-3.06a29.3,29.3,0,0,1-3.1-2.93c.49-.69,1-1.36,1.56-2Zm-1.86,2.42a40.37,40.37,0,0,0,3.35,3.39,16.59,16.59,0,0,0,4.11,3,20.72,20.72,0,0,0-.47,3,.38.38,0,0,0-.14-.27c-2.76-2.25-5.59-4.45-8.41-6.64.48-.86,1-1.68,1.57-2.49Zm-1.91,3.08c2.62,2.36,5.13,5.07,8.18,6.78a.5.5,0,0,0,.71-.39,18.09,18.09,0,0,0,.76,6.82c-3.8-3.31-7.42-6.78-11.07-10.26.43-1,.91-2,1.43-2.94Zm-1.71,3.57c4,4.34,7.93,8.91,12.66,12.48h0a11.56,11.56,0,0,0,6.67,5.17c6.16,6.53,12.49,13.47,19.59,19-.53.81-1.06,1.59-1.59,2.33-.2.27-.46.6-.69.89a10.58,10.58,0,0,0-1.79-3.38c.76.55,1.51,1.14,2.29,1.67.63.43,1.38-.55.81-1C81,47.18,68.43,35,54.85,24.49c.31-1,.67-2.06,1.07-3.06ZM54.7,25.07c4.77,4.43,9.46,9.1,14.22,13.75C64,34.86,59.09,31,54.19,27c.14-.65.33-1.28.51-1.92ZM54,27.77c6.45,5.51,13,10.88,19.46,16.42,3.86,3.32,7.66,6.72,11.32,10.26,2.1,2,5.9,5.07,6.83,8.13l-3.06,3.88C78.3,54.25,66.5,41.7,53.42,32.43A33.87,33.87,0,0,1,54,27.77Zm-.65,5.31C66,43.43,75.63,56.7,87.87,67.36l-.8,1C76.74,57.17,64.22,47.7,53.45,36.83a33.34,33.34,0,0,1-.08-3.74Zm1.36,10.48A31.52,31.52,0,0,1,53.58,38C63.71,48.83,74.33,60.69,86.29,69.44c-.77,1.07-1.51,2.18-2.17,3.29C77.5,61.2,65.52,51.52,54.73,43.57Zm3.79,8.91c-.06-.11-.11-.23-.16-.34,7.17,8.65,15.7,16.45,24.21,23.65a15.81,15.81,0,0,0-.7,1.89c-7.61-8.61-16.48-16-23.34-25.21Zm23,26.86a10.51,10.51,0,0,0-.15,2A105,105,0,0,1,62.16,59c5.9,7.24,12.79,13.76,19.33,20.38ZM57.16,49.65c-.62-1.33-1.21-2.68-1.73-4.06,0-.1-.07-.21-.11-.32,10.43,8.64,19,18.49,28.27,28.45-.18.33-.32.66-.49,1-8.05-8.93-18-16-25.93-25.06Zm53.59,57.28a1.09,1.09,0,0,0-.25.09c-10.66,6.63-22.13,11.73-32.82,18.3C66.73,132,56.53,140,45.94,147.24c0-27.51.12-55-.45-82.54a1.17,1.17,0,0,0,.85-.3c3.25-3.32,6.41-6.73,9.64-10.08,5.94,11.2,15.63,21.16,24.43,28a.71.71,0,0,0,1-.17c.43,1.26,2.54,1.19,2.41-.31C83.18,74,94.44,63.28,98.6,57.33c4.93-7,9.5-17.5,9.77-26.13,0-.6,0-1.17-.05-1.76a.64.64,0,0,0,0-.15,36.81,36.81,0,0,0-.72-6.79,3.4,3.4,0,0,0,.38-.27,20.93,20.93,0,0,0,2.38-2.48A36.57,36.57,0,0,0,113.14,16c4.42,30.35-1.86,60.49-2.39,90.9Zm36.34,33.36s0,0,0,0l-.48.91c-3.23-5.92-8.68-10.95-13.42-15.51-6.54-6.3-13.54-12.23-20.62-17.91a.82.82,0,0,0,.07-.31c.48-30.9,7.35-61.9,1.48-92.6,11.27,9.64,25.51,15.83,34.37,28.06a1,1,0,0,0,.36.25c-.17,16.07-.35,32.14-.27,48.2s1.88,32.9-1.48,48.86Zm0,0" transform="translate(0)"/></g></g></g></svg>