<svg xmlns="http://www.w3.org/2000/svg" viewBox="0 0 514.23 514.63"><defs><style>.cls-1{fill:#fff;}</style></defs><title>snapchat</title><g id="Layer_2" data-name="Layer 2"><g id="Layer_1-2" data-name="Layer 1"><path class="cls-1" d="M513.74,120.45a157.55,157.55,0,0,0-2.54-27.64c-2.12-11.13-5.11-22-10.44-32.05a111.27,111.27,0,0,0-21.4-28.57A106.17,106.17,0,0,0,432.64,5.52C416.43,1.2,399.89.24,383.24.26c0,0-.09-.17-.09-.26H131c0,.09,0,.17,0,.26-9.45.17-18.92.1-28.33,1.27C92.36,2.8,82.16,4.73,72.4,8.34A106.52,106.52,0,0,0,32.29,34.68,106.15,106.15,0,0,0,5.44,81.58C1.13,97.66.19,114.06.17,130.58L0,383.74v0C.31,395.19.4,406.67,2.33,418c2,12,5,23.73,10.53,34.63a110.77,110.77,0,0,0,30.92,37.4,100.4,100.4,0,0,0,30.94,16.77c16.52,5.33,33.57,7.37,50.87,7.47,10.79.07,21.58.34,32.37.29,78.39-.33,156.79.57,235.19-.49A185,185,0,0,0,424,510.82a104.46,104.46,0,0,0,51.66-25.13c17.25-15.38,28.88-34.21,34.13-56.92,3.44-14.85,4.3-29.92,4.45-45v-3C514.23,379.55,513.79,123.83,513.74,120.45Zm-68.82,238c-3.29,7.7-19.92,14.09-48.06,18.44-2.64.41-3.75,4.68-5.28,11.67-.63,2.89-1.27,5.72-2.15,8.69a5.26,5.26,0,0,1-5.57,4.16h-.44a45.07,45.07,0,0,1-8-1,105.37,105.37,0,0,0-21.11-2.24,93.63,93.63,0,0,0-15.22,1.29c-10.47,1.75-19.42,8.06-28.89,14.76-13.26,9.38-28.27,20-50.7,20-1.07,0-2.09,0-2.86-.08-.61.05-1.25.08-1.89.08-22.44,0-37.44-10.61-50.68-20-9.49-6.71-18.44-13-28.92-14.78a93.53,93.53,0,0,0-15.22-1.29,104.31,104.31,0,0,0-21.11,2.39,46.77,46.77,0,0,1-8,1.15c-2.21,0-4.89-.49-6-4.31-.89-3-1.52-5.93-2.14-8.75-1.54-7-2.65-11.32-5.28-11.72-28.14-4.34-44.77-10.74-48.08-18.48a7.25,7.25,0,0,1-.58-2.45,4.52,4.52,0,0,1,3.78-4.71c22.35-3.68,42.22-15.49,59.06-35.12a132.43,132.43,0,0,0,20.15-31.32l.1-.22c3.25-6.59,3.89-12.28,1.93-16.92-3.63-8.55-15.63-12.36-23.58-14.88-2-.62-3.84-1.22-5.33-1.81-7-2.78-18.63-8.66-17.08-16.77,1.12-5.92,8.95-10,15.27-10a10.83,10.83,0,0,1,4.62.92c7.15,3.35,13.58,5,19.1,5,6.88,0,10.2-2.62,11-3.36-.2-3.67-.44-7.55-.67-11.21v0c-1.61-25.68-3.63-57.63,4.55-76,24.46-54.85,76.34-59.11,91.65-59.11l6.67-.06h.91c15.35,0,67.34,4.27,91.82,59.15,8.17,18.34,6.16,50.32,4.54,76l-.08,1.23c-.22,3.49-.43,6.79-.6,10,.76.7,3.79,3.1,10,3.34,5.27-.2,11.33-1.89,18-5a14.22,14.22,0,0,1,5.89-1.17,17.83,17.83,0,0,1,6.71,1.28l.11,0c5.66,2,9.37,6,9.45,10.24.07,3.93-2.85,9.81-17.22,15.48-1.47.58-3.35,1.18-5.33,1.81-8,2.52-20,6.33-23.58,14.88-2,4.64-1.32,10.33,1.93,16.91l.1.22c1,2.34,25.21,57.54,79.21,66.43a4.52,4.52,0,0,1,3.78,4.71A7.26,7.26,0,0,1,444.92,358.45Z"/></g></g></svg>