<svg xmlns="http://www.w3.org/2000/svg" viewBox="0 0 47.41 34.7"><title>car</title><g id="Layer_2" data-name="Layer 2"><g id="Layer_1-2" data-name="Layer 1"><path d="M23.9,18.8q-.15-9-.9-18a.65.65,0,0,0-.6-.6H11.3C8.1.2,4.4-.3,1.3.3A.82.82,0,0,0,.8.8C-.5,5,.6,11.1.6,15.6c0,3.5.2,3.7,3.5,3.8,13.2.6,26.3,1.2,39.5.8a.64.64,0,0,0,.6-.8c-.7-4.7-4.4-6.9-8-9.4-1.8-1.3-2.3-2.5-4.3-2.8-2.8-.4-6,0-8.9,0a.65.65,0,0,0,0,1.3c3.9,0,8.2-.7,11.4,1.7,2.4,1.8,13.1,8.8,5.3,8.9-9.9.2-19.8-.2-29.7-.6l-5.9-.3C.8,18,1.8,11.5,1.8,9.7c0-1.6-1-8.2,2-8.2h7.4c3.6,0,10.4-1.7,10.8,3s.5,9.6.6,14.4a.66.66,0,0,0,1.3-.1Z"/><path d="M42.9,19.4c.6,1.3,1.2,2.5,1.9,3.7.9,1.6,2.8,5-.6,5.2-.8.1-.8,1.3,0,1.3,6.6-.4,1.2-7.9-.2-10.8-.4-.7-1.5-.1-1.1.6Z"/><path d="M32.5,28.4H15.7a.65.65,0,0,0,0,1.3H32.5c.8-.1.8-1.3,0-1.3Z"/><path d="M4.6,28.5c-.7,0-2.7.3-3-.8a12.31,12.31,0,0,1-.3-3.3,12.9,12.9,0,0,1,1-5.9c.3-.7-.7-1.4-1.1-.6C-.1,20.6-.1,23.6.1,26.6c.1.9.2,2.3.9,3s2.7.3,3.5.3c.9-.2.9-1.4.1-1.4Z"/><path d="M5.3,29.2c.3-2.6,1.6-4.6,4.5-4.4a9,9,0,0,1,3.2.9c1.4.7,1.5,2.6,1.6,4,.1,2.5-2.6,3.7-4.7,3.8-2.3,0-4-2-4.5-4.1a.62.62,0,0,0-1.2.3,6.33,6.33,0,0,0,6.3,5,5.2,5.2,0,0,0,5.3-5.5c-.2-3.8-2.5-5.1-6-5.6s-5.4,2.6-5.7,5.7c-.1.7,1.1.7,1.2-.1Z"/><path d="M33.5,29.1a4.22,4.22,0,0,1,3.4-4.7c2.5-.7,4.3.5,5.5,2.7a3.3,3.3,0,0,1,0,3.9c-.6.8-1.9,1-2.8,1.2-2.6.6-5.4-.1-6-3.1-.1-.8-1.3-.5-1.2.3.6,3.4,3.6,4.5,6.7,4.1,2.7-.3,5.9-1.8,5.1-5.1-.8-3.5-3.2-5.9-6.9-5.4a5.46,5.46,0,0,0-5.1,6c0,.9,1.3.9,1.3.1Z"/></g></g></svg>