<svg xmlns="http://www.w3.org/2000/svg" viewBox="0 0 32 32"><title>instagram</title><g id="Layer_2" data-name="Layer 2"><g id="Layer_1-2" data-name="Layer 1"><path d="M28,0H4A4,4,0,0,0,0,4V28a4,4,0,0,0,4,4H28a4,4,0,0,0,4-4V4A4,4,0,0,0,28,0ZM16,12c3.68,0,4,4,4,4a3.82,3.82,0,0,1-4,4,3.82,3.82,0,0,1-4-4S12.32,12,16,12ZM28,26a2,2,0,0,1-2,2H6a2,2,0,0,1-2-2V16a2,2,0,0,1,2-2H8.28A7.86,7.86,0,0,0,8,16a8,8,0,1,0,15.72-2H26a2,2,0,0,1,2,2ZM28,8a2,2,0,0,1-2,2H24a2,2,0,0,1-2-2V6a2,2,0,0,1,2-2h2a2,2,0,0,1,2,2Z"/></g></g></svg>