<svg xmlns="http://www.w3.org/2000/svg" viewBox="0 0 1080.9 212.52"><defs><style>.cls-1{fill:#fff;}.cls-2{fill:#62bbb7;}</style></defs><title>Asset 1</title><g id="Layer_2" data-name="Layer 2"><g id="A_HATCH"><path class="cls-1" d="M679.83,168l.45,4.11a43.67,43.67,0,0,0,34.94,37l4.11.64,6.11.82,6.2.55,6.2.18,6.2-.18,6.2-.55,6.2-.82,4.11-.64a43.75,43.75,0,0,0,34.94-37l.37-4.11V85.48h-41.6V162l-.64,2.28C748,180.78,724.89,179,721.52,162V85.48H679.83V168"/><path class="cls-1" d="M632.12,85.48H564.43V207.81h40.41v-35.4h27.28l4-.46C688,162.64,684.6,90.05,632.12,85.48Zm-8.66,52.91-1.73.37H604.84v-18h16.88l1.73.37A9,9,0,0,1,623.45,138.39Z"/><path class="cls-1" d="M830.17,155.08l9.94,2.37,9.76,2.83,9.67,3.28,1.55,1c6.79,5.14,3.37,15.91-5,16.51h-1.82l-2.46-.37A15.46,15.46,0,0,1,839.94,169l-.28-2.46H800.25l.09,3.83c3.4,44.16,56.49,51.56,88.12,31.93l4.11-2.65h0l2.83-2.37,2.55-2.64a37.83,37.83,0,0,0,8.3-34.67l-1.09-3.56-1.37-3.47c-6.35-12.67-25-23.05-39.14-23l-4.74-.18-4.83.18-1.55-.09a8.51,8.51,0,0,1-6.57-11l.64-1.55,1.28-1.37a9.93,9.93,0,0,1,16.42,7.3l-.18,1.91h41.6l-.82-4.1-1.1-4c-10.15-32.12-48.53-44-77.36-29.65l-3.92,2.19L819.77,92a34.6,34.6,0,0,0,4,60.94l3.19,1.18,3.19,1"/><polygon class="cls-1" points="498.19 119.6 517.45 85.48 561.6 85.48 521.92 155.72 521.92 207.81 474.48 207.81 474.48 155.72 434.79 85.48 478.95 85.48 498.19 119.6"/><path class="cls-1" d="M293.66,85.48H253.25L212.1,207.81h42.42L258,192.49h30.93l3.47,15.33h42.33Zm-28.37,74.35,8.12-36.49,8.21,36.49Z"/><polygon class="cls-1" points="431.96 122.06 397.02 122.06 397.02 207.81 355.88 207.81 355.88 122.06 320.94 122.06 320.94 85.48 431.96 85.48 431.96 122.06"/><polygon class="cls-1" points="208.37 173.24 208.37 207.81 119.6 207.81 119.6 85.48 160.01 85.48 160.01 173.24 208.37 173.24"/><path class="cls-1" d="M67.69,85.48H0V207.81H40.41v-35.4H67.69l4-.46C123.53,162.68,120.19,90,67.69,85.48ZM59,138.39l-1.73.37H40.41v-18H57.29l1.73.37A9,9,0,0,1,59,138.39Z"/><path class="cls-2" d="M923.68,103.91V207.81H977l6-.18,6-.55c76.8-9.27,116.9-95,75-159.92l-3.47-5-3.65-4.74c-50-59.16-143.33-46.06-175,24.63l-2.28,5.57-1.92,5.75,4.38,1.73,4.2,2.1,4.11,2.37,3.92,2.65,3.65,3,1.37-5.2,1.73-5C924.15,16,1001,4.2,1040.64,53.55l3.19,4.29,2.83,4.47c30.86,52.38-3.64,118.2-64.41,122.61l-5.29.18H946.4V103.91l.18-3.19a30.54,30.54,0,0,1,50.81-19.52l2.28,2.28,2,2.46a30.6,30.6,0,0,1-21.53,48.35l-3.19.09H957.8v22.81H977l4.38-.18,4.38-.55a53.35,53.35,0,0,0,33.3-85.3l-2.92-3.37-3.1-3.1c-31.44-28.43-81.37-11.4-88.58,30.47l-.55,4.38-.18,4.38"/></g></g></svg>