<svg xmlns="http://www.w3.org/2000/svg" viewBox="0 0 280.76 268"><defs><style>.cls-1{fill:#fff;}</style></defs><title>star</title><g id="Layer_2" data-name="Layer 2"><g id="Isolation_Mode" data-name="Isolation Mode"><path class="cls-1" d="M221,268a10,10,0,0,1-4.65-1.15l-75.93-39.92L64.46,266.85a10,10,0,0,1-14.51-10.54l14.5-84.55L3,111.89A10,10,0,0,1,8.56,94.83L93.45,82.5l38-76.92a10,10,0,0,1,17.93,0l38,76.92L272.2,94.83a10,10,0,0,1,5.54,17.05l-61.43,59.88,14.5,84.54A10,10,0,0,1,221,268ZM31.49,111.71l50.68,49.4A10,10,0,0,1,85,170l-12,69.75,62.65-32.93a10,10,0,0,1,9.31,0l62.64,32.93-12-69.75a10,10,0,0,1,2.88-8.85l50.68-49.4-70-10.18a10,10,0,0,1-7.53-5.47L140.38,32.59,109.06,96.06a10,10,0,0,1-7.53,5.47Zm0,0"/></g></g></svg>