<svg xmlns="http://www.w3.org/2000/svg" width="15" height="15" viewBox="0 0 15 15">
  <defs>
    <style>
      .cls-1 {
        fill-rule: evenodd;
      }
    </style>
  </defs>
  <path id="Forma_1" data-name="Forma 1" class="cls-1" d="M1855.5,18.313c2.33,0,4.22-2.313,4.22-5.156S1857.83,8,1855.5,8a3.855,3.855,0,0,0-3.02,1.549,5.8,5.8,0,0,0-1.2,3.607C1851.28,16,1853.17,18.313,1855.5,18.313Zm0-9.375c1.81,0,3.28,1.892,3.28,4.219s-1.47,4.219-3.28,4.219-3.28-1.893-3.28-4.219S1853.69,8.938,1855.5,8.938Zm3.28,8.437a0.469,0.469,0,1,0,0,.938,3.284,3.284,0,0,1,3.28,3.281,0.469,0.469,0,0,1-.47.468h-12.18a0.469,0.469,0,0,1-.47-0.468,3.284,3.284,0,0,1,3.28-3.281,0.469,0.469,0,1,0,0-.937,4.222,4.222,0,0,0-4.22,4.219A1.408,1.408,0,0,0,1849.41,23h12.18a1.408,1.408,0,0,0,1.41-1.406A4.222,4.222,0,0,0,1858.78,17.375Z" transform="translate(-1848 -8)"/>
</svg>
